<svg width="192" height="192" viewBox="0 0 192 192" fill="none" xmlns="http://www.w3.org/2000/svg">
<path d="M168.833 27.9394L135.733 61.0407L130.957 56.2656L164.059 23.1642L140.895 0C134.653 0 90.4827 0 83.6176 0L96.0353 12.4179C109.937 12.4179 121.282 12.417 135.752 12.4179L146.498 23.1642L122.178 47.4851L109.198 34.5065L100.419 43.2869C105.428 48.2971 121.072 63.9408 126.952 69.8211L100.777 95.9981L122.986 118.208L131.765 109.428L118.338 95.9981L168.833 45.5002L179.581 56.2465V69.546L161.91 87.2177L148.824 74.1321L140.043 82.9125C150.415 93.2834 163.511 106.381 173.901 116.77V99.2086L170.69 95.9981L192 74.689C192 61.355 192 64.5235 192 51.1026L168.833 27.9394Z" fill="url(#paint0_linear_6022_6)"/>
<path d="M179.581 135.751L168.833 146.497L144.512 122.176L157.492 109.197L148.711 100.417C143.701 105.427 128.058 121.07 122.178 126.951L96 100.774L73.7903 122.984L82.5706 131.765L96 118.335L146.498 168.833L135.752 179.58H122.452L104.78 161.909L117.866 148.823L109.086 140.043C98.7156 150.413 85.6168 163.51 75.2279 173.899H92.7895L96 170.69L117.308 191.999C130.642 191.999 127.473 191.999 140.895 191.999L164.059 168.834L130.957 135.733L135.733 130.957L168.833 164.059L191.999 140.895C191.999 134.652 191.999 90.4826 191.999 83.6165L179.581 96.0344C179.581 109.936 179.581 121.281 179.581 135.751Z" fill="url(#paint1_linear_6022_6)"/>
<path d="M56.2488 179.581L45.5026 168.834L69.8233 144.513L82.8028 157.492L91.5822 148.711C86.5721 143.701 70.9295 128.057 65.0482 122.177L91.224 96L69.0152 73.7901L60.2339 82.5705L73.6633 96L23.1668 146.498L12.4197 135.752V122.452L30.0912 104.78L43.1767 117.866L51.957 109.086C41.5862 98.7148 28.4893 85.6167 18.1004 75.2287V92.7905L21.3099 96L0.000976562 117.309C0.000976562 130.643 0.000976562 127.475 0.000976562 140.896L23.1659 164.06L56.2669 130.958L61.043 135.734L27.941 168.835L51.1049 192C57.3473 192 101.517 192 108.382 192L95.9637 179.582C82.0635 179.581 70.7183 179.581 56.2488 179.581Z" fill="url(#paint2_linear_6022_6)"/>
<path d="M12.4187 56.2474L23.1659 45.5011L47.4866 69.8221L34.5081 82.8017L43.2884 91.5821C48.2985 86.571 63.9421 70.9282 69.8224 65.0469L95.9991 91.2239L118.208 69.014L109.428 60.2336L95.9991 73.663L45.5016 23.1651L56.2478 12.4189H69.5473L87.2187 30.0905L74.1332 43.1752L82.9136 51.9556C93.2843 41.5847 106.382 28.4876 116.772 18.0986H99.2105L95.9991 21.3091L74.6901 0C61.3572 0 64.5247 0 51.104 0L27.94 23.1642L61.042 56.2656L56.2659 61.0407L23.1649 27.9394L0 51.1035C0 57.3459 0 101.515 0 108.383L12.4178 95.9647C12.4187 82.0623 12.4187 70.7171 12.4187 56.2474Z" fill="url(#paint3_linear_6022_6)"/>
<defs>
<linearGradient id="paint0_linear_6022_6" x1="181.64" y1="5.50372" x2="10.7433" y2="176.399" gradientUnits="userSpaceOnUse">
<stop stop-color="#DEC699"/>
<stop offset="1" stop-color="#B8A379"/>
</linearGradient>
<linearGradient id="paint1_linear_6022_6" x1="220.485" y1="44.3484" x2="49.5876" y2="215.244" gradientUnits="userSpaceOnUse">
<stop stop-color="#DEC699"/>
<stop offset="1" stop-color="#B8A379"/>
</linearGradient>
<linearGradient id="paint2_linear_6022_6" x1="186.495" y1="10.3581" x2="15.5979" y2="181.253" gradientUnits="userSpaceOnUse">
<stop stop-color="#DEC699"/>
<stop offset="1" stop-color="#B8A379"/>
</linearGradient>
<linearGradient id="paint3_linear_6022_6" x1="147.65" y1="-28.4871" x2="-23.2469" y2="142.408" gradientUnits="userSpaceOnUse">
<stop stop-color="#DEC699"/>
<stop offset="1" stop-color="#B8A379"/>
</linearGradient>
</defs>
</svg>
